# xmcd
# Track frame offsets:
# 150
# 22464
# 45614
# 60502
# 92677
# 114164
# 143724
# 164564
# 189564
# 214877
#
# Disc length: 3550 seconds
# Revision: 1
# Processed by: cddbd v1.5.1PL2 Copyright (c) Steve Scherf et al.
# Submitted via: VisiTrax 2.9.7.197 - For more info visit www.synapsa.com
#
DISCID=8d0ddc0a
DTITLE=Stevie Ray Vaughan - Stevie Ray Vaughan Live
DYEAR=1900
DGENRE=
TTITLE0=Look At Little Sister
TTITLE1=Tightrope
TTITLE2=Le Me Love You Baby
TTITLE3=Texas Flood
TTITLE4=Superstition
TTITLE5=Cold Shot
TTITLE6=Crossfire
TTITLE7=Leave My Little Girl Alone
TTITLE8=Wall Of Denial
TTITLE9=Voodoo Chile
EXTD=
EXTT0=
EXTT1=
EXTT2=
EXTT3=
EXTT4=
EXTT5=
EXTT6=
EXTT7=
EXTT8=
EXTT9=
PLAYORDER=
